<svg aria-hidden="true" style="position: absolute; width: 0; height: 0; overflow: hidden;" version="1.1" xmlns="http://www.w3.org/2000/svg" xmlns:xlink="http://www.w3.org/1999/xlink">
<defs>
<symbol id="add" viewBox="0 0 30 30">
<path d="M22 11.5v3c0 0.828-0.672 1.5-1.5 1.5h-6.5v6.5c0 0.828-0.672 1.5-1.5 1.5h-3c-0.828 0-1.5-0.672-1.5-1.5v-6.5h-6.5c-0.828 0-1.5-0.672-1.5-1.5v-3c0-0.828 0.672-1.5 1.5-1.5h6.5v-6.5c0-0.828 0.672-1.5 1.5-1.5h3c0.828 0 1.5 0.672 1.5 1.5v6.5h6.5c0.828 0 1.5 0.672 1.5 1.5z"></path>
</symbol>
<symbol id="back" viewBox="0 0 30 30">
<path d="M24 14v2c0 1.062-0.703 2-1.828 2h-11l4.578 4.594c0.375 0.359 0.594 0.875 0.594 1.406s-0.219 1.047-0.594 1.406l-1.172 1.188c-0.359 0.359-0.875 0.578-1.406 0.578s-1.047-0.219-1.422-0.578l-10.172-10.187c-0.359-0.359-0.578-0.875-0.578-1.406s0.219-1.047 0.578-1.422l10.172-10.156c0.375-0.375 0.891-0.594 1.422-0.594s1.031 0.219 1.406 0.594l1.172 1.156c0.375 0.375 0.594 0.891 0.594 1.422s-0.219 1.047-0.594 1.422l-4.578 4.578h11c1.125 0 1.828 0.938 1.828 2z"></path>
</symbol>
<symbol id="sale" viewBox="0 0 25 30">
<path d="M26.109 8.844c0 0.391-0.156 0.781-0.438 1.062l-13.438 13.438c-0.281 0.281-0.672 0.438-1.062 0.438s-0.781-0.156-1.062-0.438l-7.781-7.781c-0.281-0.281-0.438-0.672-0.438-1.062s0.156-0.781 0.438-1.062l2.125-2.125c0.281-0.281 0.672-0.438 1.062-0.438s0.781 0.156 1.062 0.438l4.594 4.609 10.25-10.266c0.281-0.281 0.672-0.438 1.062-0.438s0.781 0.156 1.062 0.438l2.125 2.125c0.281 0.281 0.438 0.672 0.438 1.062z"></path>
</symbol>
<symbol id="remove" viewBox="0 0 23 26">
<path d="M22 11.5v3c0 0.828-0.672 1.5-1.5 1.5h-19c-0.828 0-1.5-0.672-1.5-1.5v-3c0-0.828 0.672-1.5 1.5-1.5h19c0.828 0 1.5 0.672 1.5 1.5z"></path>
</symbol>
<symbol id="edit" viewBox="0 0 25 30">
<path d="M5.672 24l1.422-1.422-3.672-3.672-1.422 1.422v1.672h2v2h1.672zM13.844 9.5c0-0.203-0.141-0.344-0.344-0.344-0.094 0-0.187 0.031-0.266 0.109l-8.469 8.469c-0.078 0.078-0.109 0.172-0.109 0.266 0 0.203 0.141 0.344 0.344 0.344 0.094 0 0.187-0.031 0.266-0.109l8.469-8.469c0.078-0.078 0.109-0.172 0.109-0.266zM13 6.5l6.5 6.5-13 13h-6.5v-6.5zM23.672 8c0 0.531-0.219 1.047-0.578 1.406l-2.594 2.594-6.5-6.5 2.594-2.578c0.359-0.375 0.875-0.594 1.406-0.594s1.047 0.219 1.422 0.594l3.672 3.656c0.359 0.375 0.578 0.891 0.578 1.422z"></path>
</symbol>
</defs>
</svg>
